<svg version="1.1" viewBox="0.0 0.0 538.0 289.0" fill="none" stroke="none" stroke-linecap="square" stroke-miterlimit="10" xmlns:xlink="http://www.w3.org/1999/xlink" xmlns="http://www.w3.org/2000/svg"><clipPath id="p.0"><path d="m0 0l538.0 0l0 289.0l-538.0 0l0 -289.0z" clip-rule="nonzero"/></clipPath><g clip-path="url(#p.0)"><path fill="#000000" fill-opacity="0.0" d="m0 0l538.0 0l0 289.0l-538.0 0z" fill-rule="evenodd"/><path fill="#fff2cc" d="m201.96063 79.937004l134.07874 0l0 77.98426l-134.07874 0z" fill-rule="evenodd"/><path stroke="#000000" stroke-width="1.0" stroke-linejoin="round" stroke-linecap="butt" d="m201.96063 79.937004l134.07874 0l0 77.98426l-134.07874 0z" fill-rule="evenodd"/><path fill="#000000" fill-opacity="0.0" d="m201.96063 138.53543l-43.11812 0" fill-rule="evenodd"/><path stroke="#000000" stroke-width="1.0" stroke-linejoin="round" stroke-linecap="butt" d="m201.96063 138.53543l-43.11812 0" fill-rule="evenodd"/><path fill="#000000" fill-opacity="0.0" d="m213.53543 49.102364l110.92914 0l0 38.771652l-110.92914 0z" fill-rule="evenodd"/><path fill="#000000" d="m226.30078 62.00924l4.234375 0q1.421875 0 2.171875 0.21875q1.015625 0.296875 1.734375 1.0625q0.71875 0.75 1.09375 1.84375q0.375 1.09375 0.375 2.703125q0 1.421875 -0.359375 2.4375q-0.421875 1.25 -1.21875 2.03125q-0.609375 0.578125 -1.625 0.90625q-0.765625 0.25 -2.046875 0.25l-4.359375 0l0 -11.453125zm2.3125 1.9375l0 7.578125l1.734375 0q0.96875 0 1.390625 -0.109375q0.5625 -0.140625 0.9375 -0.46875q0.375 -0.34375 0.609375 -1.109375q0.234375 -0.765625 0.234375 -2.09375q0 -1.328125 -0.234375 -2.03125q-0.234375 -0.71875 -0.65625 -1.109375q-0.421875 -0.40625 -1.078125 -0.546875q-0.484375 -0.109375 -1.890625 -0.109375l-1.046875 0zm9.2578125 9.515625l0 -11.453125l8.484375 0l0 1.9375l-6.171875 0l0 2.53125l5.75 0l0 1.9375l-5.75 0l0 3.109375l6.390625 0l0 1.9375l-8.703125 0zm13.25 0l0 -9.515625l-3.40625 0l0 -1.9375l9.109375 0l0 1.9375l-3.390625 0l0 9.515625l-2.3125 0zm7.1953125 0l0 -11.453125l8.484375 0l0 1.9375l-6.171875 0l0 2.53125l5.75 0l0 1.9375l-5.75 0l0 3.109375l6.390625 0l0 1.9375l-8.703125 0zm18.0 -4.21875l2.234375 0.71875q-0.515625 1.875 -1.71875 2.796875q-1.1875 0.90625 -3.03125 0.90625q-2.28125 0 -3.75 -1.5625q-1.46875 -1.5625 -1.46875 -4.265625q0 -2.859375 1.46875 -4.4375q1.484375 -1.59375 3.890625 -1.59375q2.09375 0 3.40625 1.25q0.78125 0.734375 1.171875 2.109375l-2.28125 0.546875q-0.203125 -0.890625 -0.859375 -1.40625q-0.640625 -0.515625 -1.5625 -0.515625q-1.265625 0 -2.0625 0.921875q-0.796875 0.90625 -0.796875 2.953125q0 2.171875 0.78125 3.09375q0.78125 0.921875 2.03125 0.921875q0.921875 0 1.578125 -0.578125q0.671875 -0.59375 0.96875 -1.859375zm6.8046875 4.21875l0 -9.515625l-3.40625 0l0 -1.9375l9.109375 0l0 1.9375l-3.390625 0l0 9.515625l-2.3125 0zm6.4375 -5.65625q0 -1.75 0.515625 -2.9375q0.390625 -0.875 1.0625 -1.5625q0.6875 -0.703125 1.484375 -1.046875q1.078125 -0.453125 2.46875 -0.453125q2.53125 0 4.046875 1.578125q1.53125 1.5625 1.53125 4.359375q0 2.78125 -1.515625 4.359375q-1.5 1.5625 -4.03125 1.5625q-2.546875 0 -4.0625 -1.5625q-1.5 -1.5625 -1.5 -4.296875zm2.375 -0.078125q0 1.9375 0.890625 2.953125q0.90625 1.0 2.296875 1.0q1.375 0 2.265625 -1.0q0.890625 -1.0 0.890625 -2.984375q0 -1.96875 -0.875 -2.9375q-0.859375 -0.96875 -2.28125 -0.96875q-1.4375 0 -2.3125 0.984375q-0.875 0.96875 -0.875 2.953125zm10.5390625 5.734375l0 -11.453125l4.875 0q1.828125 0 2.65625 0.3125q0.84375 0.296875 1.34375 1.09375q0.5 0.78125 0.5 1.796875q0 1.296875 -0.765625 2.140625q-0.75 0.828125 -2.265625 1.046875q0.75 0.4375 1.234375 0.96875q0.5 0.515625 1.328125 1.859375l1.390625 2.234375l-2.765625 0l-1.671875 -2.5q-0.890625 -1.328125 -1.21875 -1.671875q-0.328125 -0.359375 -0.703125 -0.484375q-0.359375 -0.125 -1.15625 -0.125l-0.46875 0l0 4.78125l-2.3125 0zm2.3125 -6.609375l1.71875 0q1.65625 0 2.0625 -0.140625q0.421875 -0.140625 0.65625 -0.484375q0.234375 -0.34375 0.234375 -0.859375q0 -0.578125 -0.3125 -0.9375q-0.296875 -0.359375 -0.859375 -0.453125q-0.28125 -0.03125 -1.6875 -0.03125l-1.8125 0l0 2.90625z" fill-rule="nonzero"/><path fill="#000000" fill-opacity="0.0" d="m201.96063 86.115486l34.48819 0l0 38.771652l-34.48819 0z" fill-rule="evenodd"/><path fill="#000000" d="m212.05438 110.47549l0 -11.453125l2.3125 0l0 11.453125l-2.3125 0zm7.7421875 -11.5q1.671875 0 2.609375 1.1875q1.109375 1.40625 1.109375 4.65625q0 3.25 -1.125 4.671875q-0.921875 1.1875 -2.59375 1.1875q-1.671875 0 -2.703125 -1.28125q-1.015625 -1.296875 -1.015625 -4.59375q0 -3.234375 1.125 -4.65625q0.9375 -1.171875 2.59375 -1.171875zm0 1.8125q-0.390625 0 -0.703125 0.265625q-0.3125 0.25 -0.484375 0.90625q-0.234375 0.84375 -0.234375 2.859375q0 2.015625 0.203125 2.78125q0.203125 0.75 0.515625 1.0q0.3125 0.25 0.703125 0.25q0.40625 0 0.71875 -0.25q0.3125 -0.265625 0.484375 -0.921875q0.21875 -0.84375 0.21875 -2.859375q0 -2.015625 -0.203125 -2.765625q-0.203125 -0.75 -0.515625 -1.0q-0.296875 -0.265625 -0.703125 -0.265625z" fill-rule="nonzero"/><path fill="#000000" fill-opacity="0.0" d="m201.96063 119.14829l34.48819 0l0 38.77166l-34.48819 0z" fill-rule="evenodd"/><path fill="#000000" d="m212.05438 143.5083l0 -11.453125l2.3125 0l0 11.453125l-2.3125 0zm9.6484375 0l-2.1875 0l0 -8.28125q-1.203125 1.125 -2.84375 1.671875l0 -2.0q0.859375 -0.28125 1.859375 -1.0625q1.015625 -0.78125 1.390625 -1.828125l1.78125 0l0 11.5z" fill-rule="nonzero"/><path fill="#000000" fill-opacity="0.0" d="m308.95276 103.5538l27.086609 0l0 38.771652l-27.086609 0z" fill-rule="evenodd"/><path fill="#000000" d="m318.65588 122.25755q0 -1.75 0.515625 -2.9375q0.390625 -0.875 1.0625 -1.5625q0.6875 -0.703125 1.484375 -1.046875q1.078125 -0.453125 2.46875 -0.453125q2.53125 0 4.046875 1.578125q1.53125 1.5625 1.53125 4.359375q0 2.78125 -1.515625 4.359375q-1.5 1.5625 -4.03125 1.5625q-2.546875 0 -4.0625 -1.5625q-1.5 -1.5625 -1.5 -4.296875zm2.375 -0.078125q0 1.9375 0.890625 2.953125q0.90625 1.0 2.296875 1.0q1.375 0 2.265625 -1.0q0.890625 -1.0 0.890625 -2.984375q0 -1.96875 -0.875 -2.9375q-0.859375 -0.96875 -2.28125 -0.96875q-1.4375 0 -2.3125 0.984375q-0.875 0.96875 -0.875 2.953125z" fill-rule="nonzero"/><path fill="#000000" fill-opacity="0.0" d="m201.96063 105.50131l-43.11812 0" fill-rule="evenodd"/><path stroke="#000000" stroke-width="1.0" stroke-linejoin="round" stroke-linecap="butt" d="m201.96063 105.50131l-43.11812 0" fill-rule="evenodd"/><path fill="#000000" fill-opacity="0.0" d="m379.15747 122.93964l-43.118103 0" fill-rule="evenodd"/><path stroke="#000000" stroke-width="1.0" stroke-linejoin="round" stroke-linecap="butt" d="m379.15747 122.93964l-43.118103 0" fill-rule="evenodd"/></g></svg>