<svg xmlns="http://www.w3.org/2000/svg" xmlns:xlink="http://www.w3.org/1999/xlink" viewBox="0 0 234 129.6"><defs><style>.a{fill:none;}.b,.e{fill:#fff;}.c{clip-path:url(#a);}.d,.e{fill-rule:evenodd;}</style><clipPath id="a"><rect class="a" width="234" height="129.6"/></clipPath></defs><title>spydrnet_shrec_logo</title><rect class="b" width="234" height="129.6"/><g class="c"><path class="d" d="M53.88,32.46c0-17.2,27.83-31.14,62.16-31.14S178.2,15.26,178.2,32.46,150.37,63.6,116,63.6,53.88,49.66,53.88,32.46"/><path class="e" d="M80.88,33.48c0-9.74,6.8-17.64,15.18-17.64s15.18,7.9,15.18,17.64-6.8,17.64-15.18,17.64-15.18-7.9-15.18-17.64"/><path class="e" d="M123,33.48c0-9.74,6.8-17.64,15.18-17.64s15.18,7.9,15.18,17.64-6.8,17.64-15.18,17.64S123,43.22,123,33.48"/><path class="d" d="M89.76,39.3c0-3.55,2.61-6.42,5.82-6.42s5.82,2.87,5.82,6.42-2.61,6.42-5.82,6.42-5.82-2.87-5.82-6.42"/><path class="d" d="M132.48,39.3c0-3.55,2.61-6.42,5.82-6.42s5.82,2.87,5.82,6.42-2.61,6.42-5.82,6.42-5.82-2.87-5.82-6.42"/><polygon points="9.74 22.46 12.13 4.2 72.24 12.04 71.72 16 15.57 8.68 13.71 22.98 9.74 22.46"/><polygon points="0.83 33.01 3.22 14.74 59.87 22.13 59.35 26.09 6.67 19.22 4.8 33.52 0.83 33.01"/><polygon points="12.49 46.32 14.87 28.05 57.13 33.56 56.61 37.53 18.32 32.53 16.45 46.83 12.49 46.32"/><polygon points="30.43 59.14 32.82 40.87 63.99 44.94 63.48 48.91 36.27 45.36 34.4 59.66 30.43 59.14"/><polygon points="220.3 23.32 218.43 9.02 162.28 16.34 161.76 12.38 221.87 4.54 224.26 22.8 220.3 23.32"/><polygon points="229.2 33.86 227.34 19.56 174.65 26.43 174.13 22.47 230.78 15.08 233.16 33.35 229.2 33.86"/><polygon points="217.55 47.17 215.68 32.87 177.39 37.87 176.87 33.9 219.12 28.39 221.51 46.65 217.55 47.17"/><polygon points="199.6 59.94 197.74 45.64 161.26 50.39 160.74 46.43 201.19 41.15 203.56 59.42 199.6 59.94"/><path d="M176.83,77c0,.52-.2.78-.59.78h-.43A1.32,1.32,0,0,0,175,78a2.55,2.55,0,0,0-.49.76,2.38,2.38,0,0,0-.24,1l.07.21a.27.27,0,0,0,.24.1h1.2a1.29,1.29,0,0,1,.91.22,1.81,1.81,0,0,1,.19,1v6.58a9.13,9.13,0,0,0,.34,3.08,2.25,2.25,0,0,0,1.34,1.19,8.44,8.44,0,0,0,2.87.37,13.32,13.32,0,0,0,2.38-.16,2.11,2.11,0,0,0,1.35-.84,2.14,2.14,0,0,0,.5-1.18.29.29,0,0,0-.12-.24l-.25-.09h-.05c-.34,0-.74.1-1.19.13s-1,.06-1.53.06c-1.39,0-2.23-.18-2.52-.53a4.19,4.19,0,0,1-.45-2.41V81.27A1,1,0,0,1,180.76,80h3a2.66,2.66,0,0,0,1-.13,2.12,2.12,0,0,0,.71-.73,1.85,1.85,0,0,0,.41-1q0-.36-.42-.36H181a2.11,2.11,0,0,1-1.27-.23,2.37,2.37,0,0,1-.22-1.32v-2a.44.44,0,0,0-.1-.32.33.33,0,0,0-.25-.1h-.07a6.75,6.75,0,0,0-1.41.31,1.08,1.08,0,0,0-.72.52,3.59,3.59,0,0,0-.12,1.12Zm-15.15,6.71c-.11-.06-.17-.19-.17-.4a4.69,4.69,0,0,1,.47-2A2.34,2.34,0,0,1,163.42,80a6.77,6.77,0,0,1,2.09-.31c1.49,0,2.46.27,2.92.8a3.88,3.88,0,0,1,.69,2.56.88.88,0,0,1-.13.57.67.67,0,0,1-.52.16h-6.06a2.21,2.21,0,0,1-.73-.08m9.13-4.55q-1.17-1.63-5.08-1.63-4.17,0-5.65,2a9.33,9.33,0,0,0-1.48,5.7c0,2.76.5,4.67,1.5,5.76s2.88,1.62,5.63,1.62a19,19,0,0,0,3-.17,6.25,6.25,0,0,0,1.47-.35,2.38,2.38,0,0,0,.82-.83,2.17,2.17,0,0,0,.42-1.13.37.37,0,0,0-.1-.28l-.23-.09H171c-.46.1-1.12.2-2,.3a23.18,23.18,0,0,1-2.71.15c-2,0-3.29-.29-3.91-.87a3.8,3.8,0,0,1-.93-2.88.48.48,0,0,1,.17-.42,1.83,1.83,0,0,1,.79-.11h8.84a.6.6,0,0,0,.56-.22,1.49,1.49,0,0,0,.14-.73q0-4.14-1.17-5.78m-16.74-5.28a.45.45,0,0,0-.09-.3.47.47,0,0,0-.36-.11h-.75a1.62,1.62,0,0,0-1.16.3,1.36,1.36,0,0,0-.28,1V89.07a1.63,1.63,0,0,1-.14.77c-.09.18-.29.27-.61.27a1,1,0,0,1-.71-.23,3.34,3.34,0,0,1-.55-.92l-5.2-12.7a6.27,6.27,0,0,0-1.38-2.4,4.33,4.33,0,0,0-2.65-.57,4.2,4.2,0,0,0-2.42.54c-.49.36-.74,1.21-.74,2.55V91.93c0,.28.12.42.35.42h.69a2.07,2.07,0,0,0,1.19-.26,1.27,1.27,0,0,0,.34-1V76.52a1,1,0,0,1,.15-.62.77.77,0,0,1,.6-.18,1,1,0,0,1,.74.24,3.77,3.77,0,0,1,.59,1l5.23,12.75A5.26,5.26,0,0,0,148.3,92a4.43,4.43,0,0,0,2.52.53,3.49,3.49,0,0,0,2.63-.72,3.31,3.31,0,0,0,.62-2.19ZM124.46,92q0,.39.36.39h2a.35.35,0,0,0,.4-.39V81.24a1.53,1.53,0,0,1,.16-.88,1.47,1.47,0,0,1,.81-.28,24.89,24.89,0,0,1,2.69-.09c.47,0,1,0,1.52,0s1,.06,1.34.09h.07L134,80a.33.33,0,0,0,.09-.25,2.65,2.65,0,0,0-.36-1.28,1.54,1.54,0,0,0-1.06-.8,16.09,16.09,0,0,0-2.75-.15c-.94,0-1.94.06-3,.16l-2,.22c-.3,0-.44.19-.44.46ZM106.73,76.07a18.88,18.88,0,0,1,3.86-.17,12.21,12.21,0,0,1,4,.46,3.23,3.23,0,0,1,1.84,2,12.5,12.5,0,0,1,.61,4.43,12.48,12.48,0,0,1-.67,4.43,3.51,3.51,0,0,1-2,2.24,10.66,10.66,0,0,1-3.67.49c-1.56,0-2.71,0-3.44-.08a.88.88,0,0,1-.57-.16.7.7,0,0,1-.18-.54V76.71a.84.84,0,0,1,.2-.64m-2.31,16.28,2.18.07c1,0,2.24,0,3.73,0a16.82,16.82,0,0,0,5.6-.74,5.48,5.48,0,0,0,3-3,14.54,14.54,0,0,0,1-6,15.62,15.62,0,0,0-.64-5,6.56,6.56,0,0,0-1.47-2.57,5.61,5.61,0,0,0-2.46-1.23,20.21,20.21,0,0,0-4.86-.44c-1,0-2,0-3.06,0s-2.13,0-3.24.1h-.08a.44.44,0,0,0-.48.53V91.63a.65.65,0,0,0,.69.72M100.2,78.28l0-.19c0-.23-.15-.34-.45-.34h-.67a2.27,2.27,0,0,0-1.4.34,3,3,0,0,0-.79,1.45l-2.3,7.58a12.15,12.15,0,0,1-.86,2.34c-.2.29-.68.43-1.46.43a1.78,1.78,0,0,1-1.56-.55,10.87,10.87,0,0,1-.95-2.62l-1.9-7.27a2.75,2.75,0,0,0-.66-1.37,2.29,2.29,0,0,0-1.42-.33h-.72c-.29,0-.44.1-.44.31l0,.22,2.5,9.06q1,3.57,1.8,4.3a3.93,3.93,0,0,0,2.67.74h.59l.39,0c.19,0,.29.08.29.22a2.26,2.26,0,0,1-.06.43c0,.19-.09.37-.14.55l-1.54,4.81,0,.24a.3.3,0,0,0,.11.24.52.52,0,0,0,.29.08H92a2.29,2.29,0,0,0,1.57-.48,3.29,3.29,0,0,0,.86-1.55Zm-28.79,2c.09-.26,1.25-.39,3.49-.39a8.15,8.15,0,0,1,2.74.34A2.29,2.29,0,0,1,79,81.65a9.77,9.77,0,0,1,.4,3.17A9.28,9.28,0,0,1,78.87,88a2.75,2.75,0,0,1-1.44,1.7,7.73,7.73,0,0,1-2.86.41,20.71,20.71,0,0,1-2.11-.07,2.86,2.86,0,0,1-.91-.22c-.19-.1-.29-.41-.29-.94V81a2.16,2.16,0,0,1,.15-.78m10-.08a3.68,3.68,0,0,0-2-2.1,14.06,14.06,0,0,0-4.78-.56c-1.18,0-2.35,0-3.49.15s-1.87.18-2.18.25-.46.31-.46.73V98.31a.54.54,0,0,0,.08.37.5.5,0,0,0,.31.08h1.65a.69.69,0,0,0,.56-.18,1.06,1.06,0,0,0,.14-.63V92.86a.62.62,0,0,1,.09-.39.41.41,0,0,1,.32-.1h.12l1.43.05q.77,0,1.59,0,4.5,0,5.88-2a10.39,10.39,0,0,0,1.38-5.84,11.87,11.87,0,0,0-.65-4.42M50.77,91a2.5,2.5,0,0,0,.77.92,4.92,4.92,0,0,0,1.84.47,26.94,26.94,0,0,0,3.17.17c3.34,0,5.47-.5,6.38-1.48s1.36-2.57,1.36-4.73A6.5,6.5,0,0,0,64,84.11,2,2,0,0,0,63.11,83a14.81,14.81,0,0,0-3-.81c-1.67-.34-3.13-.64-4.38-.91a5.07,5.07,0,0,1-2.21-.77,2.6,2.6,0,0,1-.32-1.55,2.79,2.79,0,0,1,1.06-2.57,8.78,8.78,0,0,1,4.14-.65,27.82,27.82,0,0,1,2.84.13l2.23.23h.07a.33.33,0,0,0,.24-.1.38.38,0,0,0,.1-.29,2.4,2.4,0,0,0-.35-1.09,2.46,2.46,0,0,0-.73-.89,4,4,0,0,0-1.48-.37,27.32,27.32,0,0,0-3.14-.14q-4.43,0-6.13,1.43T50.3,79.4a7.73,7.73,0,0,0,.27,2.18,1.85,1.85,0,0,0,.89,1.22,11.61,11.61,0,0,0,2.2.66c1.06.25,1.85.42,2.37.52s1.42.29,2.67.56a5.71,5.71,0,0,1,2.27.81A2.45,2.45,0,0,1,61.36,87a2.93,2.93,0,0,1-.83,2.38c-.55.44-1.9.67-4,.67-.79,0-1.71-.06-2.75-.16s-2-.24-2.82-.4h-.07a.47.47,0,0,0-.28.09.35.35,0,0,0-.13.3A2.5,2.5,0,0,0,50.77,91"/><path d="M160.13,123.42a28,28,0,0,1-3.24.21q-4.42,0-5.53-1.59t-1.11-5.49a12.43,12.43,0,0,1,.65-4.39,3.71,3.71,0,0,1,2-2.25,11.27,11.27,0,0,1,4-.56c1,0,1.8,0,2.48.08s1.56.15,2.64.29h.07a.27.27,0,0,0,.25-.12.61.61,0,0,0,.06-.28,2.54,2.54,0,0,0-.51-1.33,2.41,2.41,0,0,0-1.8-.95,26.73,26.73,0,0,0-3.51-.18,16,16,0,0,0-4.32.51,5.52,5.52,0,0,0-2.81,1.68,8.59,8.59,0,0,0-1.58,3,15.81,15.81,0,0,0-.58,4.76q0,4.86,1.71,7.14t6.94,2.28q4.77,0,5.58-.87a3.21,3.21,0,0,0,.91-1.78v-.05c0-.19-.08-.29-.25-.29h-.08c-.15,0-.83.08-2,.22m-22.55-14,3,0c1,0,2,0,2.75.08a.43.43,0,0,0,.29-.1.32.32,0,0,0,.12-.27,2.57,2.57,0,0,0-.32-1.11,1.92,1.92,0,0,0-.74-.88A14.74,14.74,0,0,0,139,107h-2c-1.07,0-2,0-2.77,0l-3.13.12a.73.73,0,0,0-.4.11c-.13.07-.19.22-.19.45V125.2a.65.65,0,0,0,.24.6.8.8,0,0,0,.4.15c.87,0,1.84.06,2.94.07h3.5q3.95,0,4.74-.12a1.84,1.84,0,0,0,1.31-.92,2.66,2.66,0,0,0,.52-1.25c0-.22-.13-.33-.38-.33l-3.41.13c-1,0-2,0-3.07,0h-2l-1.14,0a.9.9,0,0,1-.63-.17.92.92,0,0,1-.17-.65v-4.46a.71.71,0,0,1,.13-.52.62.62,0,0,1,.45-.13h6.69a2.91,2.91,0,0,0,1.21-.18,2,2,0,0,0,.72-.84,2.38,2.38,0,0,0,.36-1,.35.35,0,0,0-.4-.39H134a.75.75,0,0,1-.43-.1.51.51,0,0,1-.13-.42V110.3c0-.41.11-.65.34-.72a9.53,9.53,0,0,1,1.91-.11Zm-22.42,0a25,25,0,0,1,3.36-.11,16.74,16.74,0,0,1,2.73.18,1.85,1.85,0,0,1,1.44.93,4.22,4.22,0,0,1,.4,1.95,5,5,0,0,1-.5,2.31,2.6,2.6,0,0,1-.94,1.2,5.27,5.27,0,0,1-2,.23h-4.25a.65.65,0,0,1-.47-.12.78.78,0,0,1-.11-.52V110a.49.49,0,0,1,.35-.55m-3.1,16.15a.58.58,0,0,0,.06.31q.06.09.27.09h1.88a.6.6,0,0,0,.45-.13.75.75,0,0,0,.11-.49v-6.22a.52.52,0,0,1,.62-.64h3.82a2.53,2.53,0,0,1,1.57.37,3.14,3.14,0,0,1,.81,1.31l1.46,3.95a2.16,2.16,0,0,0,2.46,1.85h.67a.37.37,0,0,0,.29-.11.42.42,0,0,0,.1-.26l0-.19-2.15-5.66a12,12,0,0,1-.39-1.19,2.76,2.76,0,0,1-.12-.74,1.78,1.78,0,0,1,.47-1,8.32,8.32,0,0,0,1-1.79,7.67,7.67,0,0,0,.54-3.12,6,6,0,0,0-.67-3.07,3.31,3.31,0,0,0-2.15-1.48,22.33,22.33,0,0,0-4.65-.35h-1.61l-1.48,0-3,.13c-.23,0-.35.12-.35.38Zm-5.57-18.1a.59.59,0,0,0-.06-.33c0-.06-.14-.08-.28-.08h-1.48a1.1,1.1,0,0,0-.78.19,1.33,1.33,0,0,0-.18.83v5.77a1.74,1.74,0,0,1-.2,1,1.34,1.34,0,0,1-1,.24h-7.3a1.92,1.92,0,0,1-1-.18c-.14-.12-.21-.53-.21-1.24v-5.58a1.29,1.29,0,0,0-.21-.88,1.17,1.17,0,0,0-.78-.19H91.51c-.22,0-.33.12-.33.38v18.1a.67.67,0,0,0,.06.3c0,.09.13.13.27.13H93a1.12,1.12,0,0,0,.82-.21,1.25,1.25,0,0,0,.2-.83V119a2.17,2.17,0,0,1,.19-1.16,1.58,1.58,0,0,1,1.06-.23h7.27c.55,0,.89.07,1,.22a2.14,2.14,0,0,1,.19,1.17V125a1.27,1.27,0,0,0,.18.8,1,1,0,0,0,.75.21h1.51c.22,0,.34-.14.34-.4ZM73.24,124.66a2.52,2.52,0,0,0,.77.93,4.84,4.84,0,0,0,1.83.46,25.16,25.16,0,0,0,3.17.17q5,0,6.38-1.48a8.67,8.67,0,0,0,1-7,2.15,2.15,0,0,0-.86-1.15,16,16,0,0,0-3-.8l-4.37-.91A5.15,5.15,0,0,1,76,114.1a2.55,2.55,0,0,1-.33-1.56A2.76,2.76,0,0,1,76.69,110a8.75,8.75,0,0,1,4.14-.66,27.48,27.48,0,0,1,2.83.14l2.24.23H86a.33.33,0,0,0,.24-.1.41.41,0,0,0,.11-.3A2.34,2.34,0,0,0,86,108.2a2.41,2.41,0,0,0-.73-.88,3.94,3.94,0,0,0-1.48-.38,27.57,27.57,0,0,0-3.13-.13q-4.42,0-6.14,1.42c-1.14,1-1.7,2.55-1.7,4.79a7.8,7.8,0,0,0,.27,2.19,1.87,1.87,0,0,0,.89,1.22,11.37,11.37,0,0,0,2.2.66q1.58.36,2.37.51c.52.1,1.41.29,2.66.57a5.76,5.76,0,0,1,2.27.8,2.47,2.47,0,0,1,.39,1.66A2.93,2.93,0,0,1,83,123c-.55.45-1.89.67-4,.67a26.25,26.25,0,0,1-2.74-.16c-1-.1-2-.24-2.83-.4h-.07a.44.44,0,0,0-.28.1.33.33,0,0,0-.13.3,2.38,2.38,0,0,0,.34,1.14"/></g></svg>